<?xml version="1.0" encoding="UTF-8"?>
<svg version="1.1" xmlns="http://www.w3.org/2000/svg" width="665" height="375">
<path d="M0 0 C3.85082791 0.72203023 4.82966886 2.88200403 6.95703125 5.98828125 C14.15261327 17.98724651 17.03535659 29.529187 16.4375 43.45703125 C17.53191406 42.96460938 18.62632812 42.4721875 19.75390625 41.96484375 C24.98491704 40.00939012 29.85574406 40.16569118 35.375 40.33203125 C37.40618852 40.3647475 39.43744717 40.39335279 41.46875 40.41796875 C42.47035156 40.43053711 43.47195313 40.44310547 44.50390625 40.45605469 C51.16235988 40.45827122 57.80080316 39.95589705 64.4375 39.45703125 C64.66824219 38.77898437 64.89898438 38.1009375 65.13671875 37.40234375 C71.2688253 19.90281438 71.2688253 19.90281438 76.4375 16.45703125 C78.36694336 16.19824219 78.36694336 16.19824219 80.52734375 16.19140625 C81.70393555 16.18753906 81.70393555 16.18753906 82.90429688 16.18359375 C83.71962891 16.19132812 84.53496094 16.1990625 85.375 16.20703125 C86.18646484 16.19929688 86.99792969 16.1915625 87.83398438 16.18359375 C88.61966797 16.18617187 89.40535156 16.18875 90.21484375 16.19140625 C91.28593384 16.19479004 91.28593384 16.19479004 92.37866211 16.19824219 C94.78093645 16.50020007 96.38172009 17.19013281 98.4375 18.45703125 C99.98336876 21.54876877 99.73109521 24.05132677 99.4375 27.45703125 C97.2584797 30.37284259 96.02008059 31.33930771 92.421875 32.06640625 C91.35453125 32.1128125 90.2871875 32.15921875 89.1875 32.20703125 C87.57101562 32.29210937 87.57101562 32.29210937 85.921875 32.37890625 C85.10203125 32.4046875 84.2821875 32.43046875 83.4375 32.45703125 C80.1629288 40.23776016 76.97711155 48.05000192 73.859375 55.89453125 C72.98458853 58.08630395 72.10108401 60.27464986 71.203125 62.45703125 C70.84734375 63.32328125 70.4915625 64.18953125 70.125 65.08203125 C69.66673828 66.18417969 69.66673828 66.18417969 69.19921875 67.30859375 C67.54241823 71.93708206 67.54241823 71.93708206 68.109375 76.703125 C68.46515625 77.42628906 68.8209375 78.14945312 69.1875 78.89453125 C69.56261719 79.67699219 69.93773437 80.45945312 70.32421875 81.265625 C71.20597733 83.00129715 72.10070302 84.73038104 73 86.45703125 C74.54017384 89.67130708 75.59715102 92.88736302 76.67578125 96.27734375 C77.47287204 98.70651964 77.47287204 98.70651964 79.125 101.83203125 C80.4375 104.45703125 80.4375 104.45703125 80.4375 107.45703125 C81.0975 107.45703125 81.7575 107.45703125 82.4375 107.45703125 C82.5718042 106.72581055 82.7061084 105.99458984 82.84448242 105.24121094 C83.76272292 100.93013039 85.28534279 96.85842862 86.75 92.70703125 C87.04583984 91.85109375 87.34167969 90.99515625 87.64648438 90.11328125 C93.76079378 72.68155681 93.76079378 72.68155681 99.4375 68.45703125 C104.35635837 67.11552442 107.82531078 67.25575912 112.4375 69.45703125 C115.06737737 71.90553777 116.26580524 74.6556652 116.62109375 78.25390625 C116.23170413 82.92658171 114.10573795 87.16075205 112.28808594 91.43457031 C111.02511644 94.43756667 109.83029332 97.46686769 108.62817383 100.49462891 C107.60793553 103.06248105 106.58041169 105.62730672 105.55078125 108.19140625 C103.80667247 112.53595461 102.06641617 116.88202724 100.32836914 121.22900391 C99.65471396 122.91370849 98.98072665 124.59828031 98.30639648 126.28271484 C96.77972331 130.09656292 95.25585959 133.91144012 93.7421875 137.73046875 C92.32177531 141.31190225 90.88563685 144.88669985 89.4375 148.45703125 C89.08042969 149.34003906 88.72335937 150.22304687 88.35546875 151.1328125 C84.63385348 159.95496821 80.19945144 166.06871721 71.4375 170.45703125 C67.27598284 171.83394728 63.65730979 171.78911685 59.5625 170.20703125 C56.4375 168.45703125 56.4375 168.45703125 54.4375 165.45703125 C54.13671875 163.1171875 54.13671875 163.1171875 54.125 160.51953125 C54.10824219 159.66488281 54.09148437 158.81023437 54.07421875 157.9296875 C54.51460427 154.93222475 55.27101738 153.56482811 57.4375 151.45703125 C58.7575 151.45703125 60.0775 151.45703125 61.4375 151.45703125 C61.4375 150.79703125 61.4375 150.13703125 61.4375 149.45703125 C62.22125 148.77640625 63.005 148.09578125 63.8125 147.39453125 C67.23811645 143.56110332 68.49290678 140.61777734 68.4375 135.45703125 C67.48338357 131.90226604 65.98091617 128.69494148 64.36914062 125.39306641 C62.87068405 122.27913543 61.47082223 119.12145077 60.05786133 115.96801758 C59.28954529 114.25583837 58.51622319 112.5458936 57.73706055 110.83862305 C55.4666277 105.85022726 53.35556002 100.82352285 51.34594727 95.72460938 C50.20285972 92.8713449 48.94148247 90.07551055 47.6875 87.26953125 C45.83738702 82.79603826 44.55689637 79.34927366 45.4375 74.45703125 C46.875 71.08203125 46.875 71.08203125 49.4375 68.45703125 C52.44395312 67.6704893 55.33717484 67.4702805 58.4375 67.45703125 C60.38838223 61.83849043 62.06922347 56.24589349 63.4375 50.45703125 C60.1375 50.45703125 56.8375 50.45703125 53.4375 50.45703125 C53.540625 51.32328125 53.64375 52.18953125 53.75 53.08203125 C53.31876027 57.7394203 51.67258273 59.14492274 48.4375 62.45703125 C44.62712959 64.36221646 39.35814065 63.70246434 35.13671875 63.78515625 C30.68147016 64.59434607 29.25657372 66.00156215 26.4375 69.45703125 C24.74855714 72.0348914 24.11499807 74.62968314 23.38671875 77.59375 C23.07347656 78.86863281 22.76023437 80.14351563 22.4375 81.45703125 C24.31695312 81.37001953 24.31695312 81.37001953 26.234375 81.28125 C27.8853794 81.23434647 29.53642411 81.18884694 31.1875 81.14453125 C32.0125 81.10263672 32.8375 81.06074219 33.6875 81.01757812 C39.82382642 80.89386187 39.82382642 80.89386187 42.953125 83.765625 C44.84888526 87.20293768 45.4375 89.51662769 45.4375 93.45703125 C44.14529461 96.76297802 42.7230445 99.814259 39.4375 101.45703125 C36.72487884 101.68929585 34.02976874 101.8763936 31.3125 102.01953125 C30.55839844 102.06271484 29.80429687 102.10589844 29.02734375 102.15039062 C27.16428112 102.25651445 25.30091476 102.35728126 23.4375 102.45703125 C22.6252064 106.74276205 22.30434153 110.8166054 22.26171875 115.17578125 C22.23787109 116.43777344 22.21402344 117.69976562 22.18945312 119 C22.14648706 121.63785602 22.11523521 124.27592888 22.09570312 126.9140625 C22.06798828 128.17605469 22.04027344 129.43804687 22.01171875 130.73828125 C21.99713623 131.88361328 21.98255371 133.02894531 21.9675293 134.20898438 C21.18650772 138.99512489 18.81775216 142.07677909 15.4375 145.45703125 C6.90252058 147.1360436 6.90252058 147.1360436 2.4375 144.45703125 C-1.76830448 139.80060486 -1.70026308 135.28783058 -1.66015625 129.2890625 C-1.6587413 128.49424973 -1.65732635 127.69943695 -1.65586853 126.88053894 C-1.65027378 124.343498 -1.63772228 121.8065455 -1.625 119.26953125 C-1.61998432 117.5488294 -1.61542153 115.82812617 -1.61132812 114.10742188 C-1.60030607 109.89059095 -1.58304506 105.67382609 -1.5625 101.45703125 C-2.18640625 101.1734375 -2.8103125 100.88984375 -3.453125 100.59765625 C-6.35016188 99.03111038 -7.20854098 97.4357411 -8.5625 94.45703125 C-8.75 91.33203125 -8.75 91.33203125 -8.5625 88.45703125 C-8.5625 87.46703125 -8.5625 86.47703125 -8.5625 85.45703125 C-9.5525 84.96203125 -9.5525 84.96203125 -10.5625 84.45703125 C-10.5625 83.79703125 -10.5625 83.13703125 -10.5625 82.45703125 C-11.14 82.37453125 -11.7175 82.29203125 -12.3125 82.20703125 C-15.1784304 81.25172112 -16.5615764 79.67233952 -18.5625 77.45703125 C-18.07550629 78.17004898 -17.58851257 78.88306671 -17.08676147 79.61769104 C-15.42746525 82.70856919 -15.18322047 84.41665106 -15.17431641 87.88647461 C-15.16485992 88.94785141 -15.15540344 90.00922821 -15.1456604 91.10276794 C-15.15173309 92.23932327 -15.15780579 93.3758786 -15.1640625 94.546875 C-15.16119232 95.72415665 -15.15832214 96.90143829 -15.15536499 98.11439514 C-15.1533255 100.60157757 -15.15884727 103.08877608 -15.17138672 105.57592773 C-15.18742668 109.37715666 -15.17154046 113.17731995 -15.15234375 116.97851562 C-15.15432648 119.39713776 -15.15817077 121.81575923 -15.1640625 124.234375 C-15.15495346 125.93617165 -15.15495346 125.93617165 -15.1456604 127.67234802 C-15.20438209 134.28272844 -15.47037855 139.39105882 -20.41015625 144.2890625 C-24.58187135 146.55284256 -29.00615114 146.54380483 -33.5625 145.45703125 C-36.00703339 143.10836191 -37.27689195 140.56495751 -38.5625 137.45703125 C-38.8925 136.79703125 -39.2225 136.13703125 -39.5625 135.45703125 C-40.52160991 128.63423339 -40.73665348 121.91815847 -40.765625 115.03515625 C-40.77132507 113.97214294 -40.77702515 112.90912964 -40.78289795 111.81390381 C-40.79228999 109.58183777 -40.79885867 107.34975822 -40.80273438 105.11767578 C-40.81251094 101.70320922 -40.84361741 98.28932752 -40.875 94.875 C-40.88152449 92.6992223 -40.88677713 90.52344033 -40.890625 88.34765625 C-40.9029718 87.32988098 -40.9153186 86.31210571 -40.92803955 85.26348877 C-40.90821945 78.97892155 -40.26480812 75.35951034 -35.875 70.64453125 C-35.2253125 70.05671875 -35.2253125 70.05671875 -34.5625 69.45703125 C-35.02140625 68.89757812 -35.4803125 68.338125 -35.953125 67.76171875 C-43.35443311 58.09026152 -47.01189227 46.69370372 -45.5625 34.45703125 C-44.5625 33.45703125 -44.5625 33.45703125 -41.4609375 33.1875 C-37.10913556 33.48837609 -33.97149105 34.76458077 -30.1875 36.76953125 C-29.55972656 37.07826172 -28.93195313 37.38699219 -28.28515625 37.70507812 C-23.69495631 40.05966233 -23.69495631 40.05966233 -22.5625 43.45703125 C-21.9025 43.45703125 -21.2425 43.45703125 -20.5625 43.45703125 C-20.41554688 42.27560547 -20.41554688 42.27560547 -20.265625 41.0703125 C-18.76417701 30.13304051 -14.04542173 2.50505235 0 0 Z M13.4375 45.45703125 C12.7775 46.77703125 12.1175 48.09703125 11.4375 49.45703125 C12.4275 48.79703125 13.4175 48.13703125 14.4375 47.45703125 C14.1075 46.79703125 13.7775 46.13703125 13.4375 45.45703125 Z M8.4375 51.45703125 C8.1075 52.77703125 7.7775 54.09703125 7.4375 55.45703125 C8.0975 55.12703125 8.7575 54.79703125 9.4375 54.45703125 C9.1075 53.46703125 8.7775 52.47703125 8.4375 51.45703125 Z M6.4375 55.45703125 C4.81242804 58.29014745 4.81242804 58.29014745 3.4375 61.45703125 C3.7675 62.44703125 4.0975 63.43703125 4.4375 64.45703125 C5.4275 61.48703125 6.4175 58.51703125 7.4375 55.45703125 C7.1075 55.45703125 6.7775 55.45703125 6.4375 55.45703125 Z M2.4375 65.45703125 C3.4375 68.45703125 3.4375 68.45703125 3.4375 68.45703125 Z M1.4375 68.45703125 C1.23253906 69.22789062 1.02757812 69.99875 0.81640625 70.79296875 C0.54699219 71.79585938 0.27757812 72.79875 0 73.83203125 C-0.26683594 74.82976562 -0.53367187 75.8275 -0.80859375 76.85546875 C-1.5625 79.45703125 -1.5625 79.45703125 -2.5625 81.45703125 C-1.5725 81.45703125 -0.5825 81.45703125 0.4375 81.45703125 C1.88934478 76.92001631 2.67259196 73.27641649 2.4375 68.45703125 C2.1075 68.45703125 1.7775 68.45703125 1.4375 68.45703125 Z " fill="#38474D" transform="translate(474.5625,83.54296875)"/>
<path d="M0 0 C2.32010366 1.08922747 2.32010366 1.08922747 5.84375 1.9921875 C8.4046794 0.19361082 8.4046794 0.19361082 10.84375 -2.0078125 C17.27153484 -2.92606748 17.27153484 -2.92606748 20.65625 -0.94921875 C22.83744127 0.81775591 24.58027157 2.46523065 25.84375 4.9921875 C25.95649892 7.27198348 26.00315614 9.55513199 26.02075195 11.83764648 C26.02732315 12.54203354 26.03389435 13.24642059 26.04066467 13.97215271 C26.0604218 16.31086332 26.07207149 18.64950934 26.08203125 20.98828125 C26.08610678 21.78912706 26.0901823 22.58997288 26.09438133 23.41508675 C26.11526188 27.66173165 26.12954957 31.90834413 26.13891602 36.1550293 C26.14992697 40.51930622 26.18425866 44.88306571 26.22408772 49.24716091 C26.25039083 52.61976491 26.25862037 55.99224885 26.26219749 59.36494637 C26.26703576 60.97192911 26.27856996 62.57890749 26.29723549 64.18578911 C26.39649277 73.3045917 26.22106377 81.70837293 21.84375 89.9921875 C21.18375 90.6521875 20.52375 91.3121875 19.84375 91.9921875 C19.6375 92.7140625 19.43125 93.4359375 19.21875 94.1796875 C15.80137002 101.16978292 7.86973361 106.07229821 0.84375 108.9921875 C-11.01266946 112.42054975 -24.90305376 112.32520906 -36.40625 107.6796875 C-37.31375 107.1228125 -38.22125 106.5659375 -39.15625 105.9921875 C-39.74148437 105.64285156 -40.32671875 105.29351562 -40.9296875 104.93359375 C-45.35808802 102.08409553 -48.49871164 99.08249762 -50.15625 93.9921875 C-50.89109551 89.15129801 -50.82558353 85.35874345 -48.65625 80.9296875 C-45.26971372 78.30512188 -42.42478315 77.55061511 -38.15625 77.9921875 C-34.65625 79.8046875 -34.65625 79.8046875 -32.15625 81.9921875 C-32.15625 82.6521875 -32.15625 83.3121875 -32.15625 83.9921875 C-31.41375 84.2809375 -30.67125 84.5696875 -29.90625 84.8671875 C-27.15625 85.9921875 -27.15625 85.9921875 -25.34765625 87.04296875 C-20.48037886 89.15125468 -13.96542503 88.79761531 -8.921875 87.3515625 C-7.2969732 86.64327197 -5.72119737 85.82460631 -4.15625 84.9921875 C-3.16625 84.6621875 -2.17625 84.3321875 -1.15625 83.9921875 C-0.53532282 82.17922135 -0.53532282 82.17922135 -0.15625 79.9921875 C0.4906865 78.3177636 1.15334426 76.64916129 1.84375 74.9921875 C0.9775 75.4665625 0.11125 75.9409375 -0.78125 76.4296875 C-9.96248249 80.6802581 -22.68626014 80.24760617 -32.3671875 77.69140625 C-35.09217602 76.62639982 -37.01587825 74.95419494 -39.15625 72.9921875 C-39.94515625 72.53714844 -40.7340625 72.08210938 -41.546875 71.61328125 C-50.08208893 66.31071571 -54.72988587 57.44347348 -57.76171875 48.1328125 C-60.00251082 35.97485155 -58.02490958 24.62328219 -51.359375 14.17578125 C-39.20080926 -2.14101398 -18.62818095 -8.70664979 0 0 Z M-32.15625 26.9921875 C-34.85184229 31.77988127 -35.82813978 36.52108503 -35.15625 41.9921875 C-33.1523657 48.89843162 -30.34101307 52.3937799 -24.15625 55.9921875 C-18.54488965 57.86264095 -12.45495563 57.91204148 -6.96875 55.5546875 C-2.16558122 52.76669747 1.29096354 48.90553252 3.84375 43.9921875 C5.1219041 38.69112531 4.42645203 34.3871956 1.71875 29.6796875 C-1.42349219 25.26983625 -4.93020091 21.73420386 -10.15625 19.9921875 C-11.94504802 19.8731189 -13.7385356 19.81696637 -15.53125 19.8046875 C-16.46710938 19.79050781 -17.40296875 19.77632812 -18.3671875 19.76171875 C-23.95279181 20.22327429 -28.46483659 22.79161362 -32.15625 26.9921875 Z " fill="#38474D" transform="translate(149.15625,151.0078125)"/>
<path d="M0 0 C3.85082791 0.72203023 4.82966886 2.88200403 6.95703125 5.98828125 C13.54067205 16.96680628 18.81789256 30.4914888 16.4375 43.45703125 C14.95988065 45.84108935 13.34610557 47.55213707 11.328125 49.4921875 C7.20260065 53.77966425 4.63362066 59.18203158 4.125 65.08203125 C4.2796875 66.25765625 4.2796875 66.25765625 4.4375 67.45703125 C3.4475 67.95203125 3.4475 67.95203125 2.4375 68.45703125 C2.01043175 70.17407961 1.64550861 71.90678914 1.3125 73.64453125 C-0.07516341 79.2242459 -2.14485756 81.47817888 -6.91796875 84.53125 C-7.73201172 84.98951172 -7.73201172 84.98951172 -8.5625 85.45703125 C-9.5525 84.96203125 -9.5525 84.96203125 -10.5625 84.45703125 C-10.5625 83.79703125 -10.5625 83.13703125 -10.5625 82.45703125 C-11.14 82.37453125 -11.7175 82.29203125 -12.3125 82.20703125 C-15.1784304 81.25172112 -16.5615764 79.67233952 -18.5625 77.45703125 C-18.07550629 78.17004898 -17.58851257 78.88306671 -17.08676147 79.61769104 C-15.42746525 82.70856919 -15.18322047 84.41665106 -15.17431641 87.88647461 C-15.16485992 88.94785141 -15.15540344 90.00922821 -15.1456604 91.10276794 C-15.15173309 92.23932327 -15.15780579 93.3758786 -15.1640625 94.546875 C-15.16119232 95.72415665 -15.15832214 96.90143829 -15.15536499 98.11439514 C-15.1533255 100.60157757 -15.15884727 103.08877608 -15.17138672 105.57592773 C-15.18742668 109.37715666 -15.17154046 113.17731995 -15.15234375 116.97851562 C-15.15432648 119.39713776 -15.15817077 121.81575923 -15.1640625 124.234375 C-15.15495346 125.93617165 -15.15495346 125.93617165 -15.1456604 127.67234802 C-15.20438209 134.28272844 -15.47037855 139.39105882 -20.41015625 144.2890625 C-24.58187135 146.55284256 -29.00615114 146.54380483 -33.5625 145.45703125 C-36.00703339 143.10836191 -37.27689195 140.56495751 -38.5625 137.45703125 C-38.8925 136.79703125 -39.2225 136.13703125 -39.5625 135.45703125 C-40.52160991 128.63423339 -40.73665348 121.91815847 -40.765625 115.03515625 C-40.77132507 113.97214294 -40.77702515 112.90912964 -40.78289795 111.81390381 C-40.79228999 109.58183777 -40.79885867 107.34975822 -40.80273438 105.11767578 C-40.81251094 101.70320922 -40.84361741 98.28932752 -40.875 94.875 C-40.88152449 92.6992223 -40.88677713 90.52344033 -40.890625 88.34765625 C-40.9029718 87.32988098 -40.9153186 86.31210571 -40.92803955 85.26348877 C-40.90821945 78.97892155 -40.26480812 75.35951034 -35.875 70.64453125 C-35.2253125 70.05671875 -35.2253125 70.05671875 -34.5625 69.45703125 C-35.02140625 68.89757812 -35.4803125 68.338125 -35.953125 67.76171875 C-43.35443311 58.09026152 -47.01189227 46.69370372 -45.5625 34.45703125 C-44.5625 33.45703125 -44.5625 33.45703125 -41.4609375 33.1875 C-37.10913556 33.48837609 -33.97149105 34.76458077 -30.1875 36.76953125 C-29.55972656 37.07826172 -28.93195313 37.38699219 -28.28515625 37.70507812 C-23.69495631 40.05966233 -23.69495631 40.05966233 -22.5625 43.45703125 C-21.9025 43.45703125 -21.2425 43.45703125 -20.5625 43.45703125 C-20.41554688 42.27560547 -20.41554688 42.27560547 -20.265625 41.0703125 C-18.76417701 30.13304051 -14.04542173 2.50505235 0 0 Z " fill="#597C3D" transform="translate(474.5625,83.54296875)"/>
<path d="M0 0 C2.6875 2.25 2.6875 2.25 5 5 C5.82951172 5.88558594 5.82951172 5.88558594 6.67578125 6.7890625 C14.54660211 15.78910177 18.04964049 27.57546859 17.5390625 39.453125 C15.63528476 51.9794307 9.67919898 62.21645234 -0.484375 69.87109375 C-11.35546585 76.91029388 -23.93861763 77.39015609 -36.48828125 75.46484375 C-48.88391422 72.63993611 -56.4218331 64.57036936 -63.75 54.625 C-68.82314255 43.97140065 -68.74155362 29.15506371 -65.125 18.0625 C-63.96828786 15.01649137 -62.81839297 12.72758946 -61 10 C-60.34 10 -59.68 10 -59 10 C-58.74863281 9.2471875 -58.49726563 8.494375 -58.23828125 7.71875 C-55.13128649 0.89708328 -47.84782484 -2.27987343 -41.1875 -4.875 C-26.3292239 -10.23605063 -13.52108844 -8.09326799 0 0 Z M-41.375 23.4375 C-44.76659715 28.78578782 -45.47926077 33.25875963 -44.65625 39.46875 C-43.29241401 44.72926026 -40.38753788 48.34603769 -35.953125 51.41796875 C-30.28250173 54.36387765 -25.13724368 54.69984849 -19 53 C-13.49727802 50.61327721 -9.63721436 47.48540588 -7 42 C-5.27948749 35.67950614 -5.73707453 29.7335751 -9 24 C-12.85445751 19.72083096 -16.52990099 16.3924183 -22.41796875 15.7265625 C-30.85045514 15.41733169 -35.52550777 17.43407377 -41.375 23.4375 Z " fill="#38474D" transform="translate(323,155)"/>
<path d="M0 0 C2.31470881 2.16537276 2.87097194 3.12540697 3.17578125 6.2734375 C3.37347034 14.03533548 3.37347034 14.03533548 1.5 17.375 C-2.2906321 19.50145215 -5.66493157 20.85464922 -10.0625 20.8125 C-12.61702205 19.80864629 -14.73657256 18.59203282 -17.01953125 17.07421875 C-22.23211486 13.85497495 -28.46550914 14.20144333 -34.25 15.5625 C-38.99268607 17.67036048 -41.87452563 19.79207826 -43.875 24.625 C-45.59125566 29.92087461 -45.62079672 34.10822581 -43.875 39.4375 C-40.55705932 45.61573437 -36.72063897 48.63138551 -30.0625 50.8125 C-23.43284345 51.52282034 -18.79269186 49.47435592 -13.1875 46.0625 C-8.89108169 44.34393268 -5.49134006 44.60846173 -1.0625 45.8125 C1.77807875 47.51684725 2.6457042 48.72081642 3.49609375 51.90234375 C4.07050547 55.46132769 4.19525772 58.07359455 3 61.5 C-2.39106938 67.54453233 -8.28108141 70.77938499 -16.0625 72.8125 C-16.67609375 72.99683594 -17.2896875 73.18117188 -17.921875 73.37109375 C-28.82727421 75.61983483 -41.38194372 74.01005347 -50.875 68.125 C-59.51501346 61.7463619 -65.84888341 52.90226243 -68.70703125 42.45703125 C-70.6539075 27.97312774 -68.85591915 15.93101886 -59.96875 4.03125 C-43.95617366 -14.60633886 -18.76685006 -13.4048929 0 0 Z " fill="#567A3C" transform="translate(417.0625,157.1875)"/>
<path d="M0 0 C0.70125 0.53625 1.4025 1.0725 2.125 1.625 C3.90759018 3.23806112 3.90759018 3.23806112 6.1875 2.875 C7.81560481 2.3684785 9.43780939 1.83980537 11.0390625 1.25390625 C17.12130313 -0.93026607 22.20512818 -2.48256246 28.4296875 -0.05078125 C31.88806978 1.70050818 34.41795613 3.14932049 36.625 6.375 C37.30564837 11.13953861 36.79866717 14.66888805 34.3125 18.8125 C29.586771 23.28278419 24.13687446 23.1932884 17.9375 23.1875 C17.24333984 23.16751953 16.54917969 23.14753906 15.83398438 23.12695312 C12.99936433 23.18348401 10.70369841 23.35311158 8.55975342 25.32397461 C5.24091566 29.85574686 4.28340596 33.57284826 4.36328125 39.20703125 C4.35290329 39.9724675 4.34252533 40.73790375 4.33183289 41.52653503 C4.30234807 43.95565429 4.30548809 46.38323593 4.3125 48.8125 C4.2177767 74.36475063 4.2177767 74.36475063 0.55517578 78.71679688 C-2.44060288 81.18866699 -6.24996772 80.98717938 -10 81 C-13.375 80.4375 -13.375 80.4375 -16 79 C-19.68485217 73.57580033 -19.50391466 68.22150145 -19.58203125 61.8984375 C-19.6047258 60.82558502 -19.62742035 59.75273254 -19.65080261 58.64736938 C-19.69531126 56.37978506 -19.73269464 54.11205114 -19.76342773 51.84423828 C-19.8120442 48.40722376 -19.88765391 44.97158806 -19.96679688 41.53515625 C-20.00683358 39.32294548 -20.04529472 37.11070553 -20.08203125 34.8984375 C-20.10481644 33.88550629 -20.12760162 32.87257507 -20.15107727 31.82894897 C-20.25176616 22.41388507 -19.69998555 12.35552987 -15 4 C-10.01597828 -0.73482064 -6.69265589 -1.40898019 0 0 Z " fill="#3C4A50" transform="translate(210,149)"/>
<path d="M0 0 C4.35180194 0.30087609 7.48944645 1.57708077 11.2734375 3.58203125 C11.90121094 3.89076172 12.52898437 4.19949219 13.17578125 4.51757812 C17.76598119 6.87216233 17.76598119 6.87216233 18.8984375 10.26953125 C19.5584375 10.26953125 20.2184375 10.26953125 20.8984375 10.26953125 C21.2284375 7.29953125 21.5584375 4.32953125 21.8984375 1.26953125 C22.2284375 1.26953125 22.5584375 1.26953125 22.8984375 1.26953125 C23.06664301 3.20689826 23.23294845 5.14443031 23.3984375 7.08203125 C23.49125 8.16097656 23.5840625 9.23992187 23.6796875 10.3515625 C23.8984375 13.26953125 23.8984375 13.26953125 23.8984375 16.26953125 C23.2384375 15.93953125 22.5784375 15.60953125 21.8984375 15.26953125 C21.5684375 16.25953125 21.2384375 17.24953125 20.8984375 18.26953125 C19.9084375 17.93953125 18.9184375 17.60953125 17.8984375 17.26953125 C17.8984375 16.60953125 17.8984375 15.94953125 17.8984375 15.26953125 C17.2384375 15.26953125 16.5784375 15.26953125 15.8984375 15.26953125 C16.2284375 16.58953125 16.5584375 17.90953125 16.8984375 19.26953125 C16.2384375 19.26953125 15.5784375 19.26953125 14.8984375 19.26953125 C15.2284375 21.57953125 15.5584375 23.88953125 15.8984375 26.26953125 C16.5171875 26.37265625 17.1359375 26.47578125 17.7734375 26.58203125 C19.8984375 27.26953125 19.8984375 27.26953125 21.8984375 30.26953125 C22.2284375 30.59953125 22.5584375 30.92953125 22.8984375 31.26953125 C24.97364714 35.0049086 25.8984375 36.91909521 25.8984375 41.26953125 C27.2184375 41.59953125 28.5384375 41.92953125 29.8984375 42.26953125 C29.8984375 41.60953125 29.8984375 40.94953125 29.8984375 40.26953125 C30.8884375 39.93953125 31.8784375 39.60953125 32.8984375 39.26953125 C34.2184375 42.56953125 35.5384375 45.86953125 36.8984375 49.26953125 C35.5784375 50.25953125 34.2584375 51.24953125 32.8984375 52.26953125 C31.9084375 51.77453125 31.9084375 51.77453125 30.8984375 51.26953125 C30.8984375 50.60953125 30.8984375 49.94953125 30.8984375 49.26953125 C30.3415625 49.20765625 29.7846875 49.14578125 29.2109375 49.08203125 C26.8984375 48.26953125 26.8984375 48.26953125 24.6484375 45.76953125 C20.97317099 42.42837988 18.77164609 42.51732152 13.8984375 42.26953125 C13.8984375 41.60953125 13.8984375 40.94953125 13.8984375 40.26953125 C9.33555281 40.05730406 7.34836324 40.48956096 2.8984375 42.26953125 C3.2284375 61.07953125 3.5584375 79.88953125 3.8984375 99.26953125 C3.5684375 99.26953125 3.2384375 99.26953125 2.8984375 99.26953125 C0.47708616 93.58275958 0.59226002 88.21037451 0.59765625 82.140625 C0.59337112 81.07336685 0.589086 80.0061087 0.58467102 78.9065094 C0.57894238 76.65651152 0.57841662 74.40649512 0.58276367 72.15649414 C0.58592986 68.71533731 0.56242387 65.27503543 0.53710938 61.83398438 C0.53483686 59.64453233 0.53413266 57.45507798 0.53515625 55.265625 C0.5259465 54.23843857 0.51673676 53.21125214 0.50724792 52.15293884 C0.54812558 45.84439667 1.17943058 42.18994609 5.5859375 37.45703125 C6.235625 36.86921875 6.235625 36.86921875 6.8984375 36.26953125 C6.43953125 35.71007812 5.980625 35.150625 5.5078125 34.57421875 C-1.89349561 24.90276152 -5.55095477 13.50620372 -4.1015625 1.26953125 C-3.1015625 0.26953125 -3.1015625 0.26953125 0 0 Z " fill="#587C3E" transform="translate(433.1015625,116.73046875)"/>
<path d="M0 0 C3.62688338 3.62688338 5.86141108 6.25791153 8 11 C8 12.32 8 13.64 8 15 C9.32 15.33 10.64 15.66 12 16 C12 15.34 12 14.68 12 14 C12.99 13.67 13.98 13.34 15 13 C16.32 16.3 17.64 19.6 19 23 C17.68 23.99 16.36 24.98 15 26 C14.34 25.67 13.68 25.34 13 25 C13 24.34 13 23.68 13 23 C12.443125 22.938125 11.88625 22.87625 11.3125 22.8125 C9 22 9 22 6.75 19.5 C3.07473349 16.15884863 0.87320859 16.24779027 -4 16 C-4 15.34 -4 14.68 -4 14 C-8.56288469 13.78777281 -10.55007426 14.22002971 -15 16 C-14.67 34.81 -14.34 53.62 -14 73 C-14.33 73 -14.66 73 -15 73 C-17.42135134 67.31322833 -17.30617748 61.94084326 -17.30078125 55.87109375 C-17.30506638 54.8038356 -17.3093515 53.73657745 -17.31376648 52.63697815 C-17.31949512 50.38698027 -17.32002088 48.13696387 -17.31567383 45.88696289 C-17.31250764 42.44580606 -17.33601363 39.00550418 -17.36132812 35.56445312 C-17.36360064 33.37500108 -17.36430484 31.18554673 -17.36328125 28.99609375 C-17.372491 27.96890732 -17.38170074 26.94172089 -17.39118958 25.88340759 C-17.34928377 19.4161928 -16.70380856 15.70380856 -12 11 C-8.04354913 9.73094972 -4.08674202 8.743044 0 8 C-0.66 6.02 -1.32 4.04 -2 2 C-1.34 2 -0.68 2 0 2 C0 1.34 0 0.68 0 0 Z " fill="#67854E" transform="translate(451,143)"/>
<path d="M0 0 C0.66 0 1.32 0 2 0 C2 0.66 2 1.32 2 2 C2.99 2 3.98 2 5 2 C5.33 1.34 5.66 0.68 6 0 C9 1 9 1 10.75 4.0625 C12.44685267 8.33998276 11.90647903 11.54314477 11 16 C10.67 16.66 10.34 17.32 10 18 C10.39938767 20.09821215 10.39938767 20.09821215 11 22 C14.04134491 20.33075929 14.04134491 20.33075929 15 18 C15.99 18 16.98 18 18 18 C20.15028304 17.05021103 20.15028304 17.05021103 22 16 C22.33 16.33 22.66 16.66 23 17 C23.99 16.67 24.98 16.34 26 16 C25.67 18.31 25.34 20.62 25 23 C24.01 23.33 23.02 23.66 22 24 C22 26.97 22 29.94 22 33 C20.515 32.505 20.515 32.505 19 32 C17.8125 28.4375 17.8125 28.4375 17 25 C15.68 25.99 14.36 26.98 13 28 C11.68 27.34 10.36 26.68 9 26 C9.33 25.01 9.66 24.02 10 23 C9.34 22.67 8.68 22.34 8 22 C8 21.01 8 20.02 8 19 C7.67 18.01 7.34 17.02 7 16 C6.01 16.33 5.02 16.66 4 17 C4 15.68 4 14.36 4 13 C2.35 12.67 0.7 12.34 -1 12 C-2.125 6.25 -2.125 6.25 -1 4 C-0.34 4 0.32 4 1 4 C0.67 2.68 0.34 1.36 0 0 Z " fill="#547838" transform="translate(449,132)"/>
<path d="M0 0 C0.66 0 1.32 0 2 0 C2.33 18.15 2.66 36.3 3 55 C2.67 55 2.34 55 2 55 C-0.47262081 49.25907072 -0.2561039 43.82504281 -0.1953125 37.6953125 C-0.1924826 36.61619598 -0.18965271 35.53707947 -0.18673706 34.42526245 C-0.1755766 30.99172701 -0.1504793 27.55845609 -0.125 24.125 C-0.11496487 21.79167044 -0.10583995 19.45833678 -0.09765625 17.125 C-0.07565079 11.416577 -0.04221427 5.70830741 0 0 Z " fill="#899A73" transform="translate(434,161)"/>
<path d="M0 0 C1.32 0 2.64 0 4 0 C4 3.3 4 6.6 4 10 C3.01 10.495 3.01 10.495 2 11 C1.14634032 13.78445015 0.52662885 16.59471811 -0.12109375 19.43359375 C-1 22 -1 22 -4 24 C-5 23 -5 23 -5.09765625 20.93359375 C-5.08605469 20.10988281 -5.07445312 19.28617188 -5.0625 18.4375 C-5.05347656 17.61121094 -5.04445313 16.78492188 -5.03515625 15.93359375 C-5.02355469 15.29550781 -5.01195312 14.65742188 -5 14 C-4.01 14 -3.02 14 -2 14 C-1.09791737 9.36784746 -1.09791737 9.36784746 -1.5625 4.75 C-1.706875 4.1725 -1.85125 3.595 -2 3 C-1.34 2.01 -0.68 1.02 0 0 Z " fill="#6E8A57" transform="translate(475,141)"/>
<path d="M0 0 C1.010625 0.391875 2.02125 0.78375 3.0625 1.1875 C3.701875 1.455625 4.34125 1.72375 5 2 C4.01 2.33 3.02 2.66 2 3 C1.67 3.66 1.34 4.32 1 5 C0.01 4.34 -0.98 3.68 -2 3 C-2 2.01 -2 1.02 -2 0 C-3.05574219 0.2475 -3.05574219 0.2475 -4.1328125 0.5 C-7.12660367 1.02207802 -9.83972545 1.06307064 -12.875 1 C-17.38787762 0.95542837 -21.56512619 1.19365931 -26 2 C-26.33 1.34 -26.66 0.68 -27 0 C-26.01 0 -25.02 0 -24 0 C-24 -0.66 -24 -1.32 -24 -2 C-15.9705204 -4.6764932 -7.62934681 -3.19186958 0 0 Z " fill="#40484E" transform="translate(147,150)"/>
<path d="M0 0 C2.39356251 0.03879839 4.73969899 0.14634831 7.125 0.3125 C8.42695313 0.39113281 9.72890625 0.46976563 11.0703125 0.55078125 C16.5564731 1.17792685 21.14960788 1.79957223 25 6 C27.59915538 7.19027984 27.59915538 7.19027984 30 8 C29.67 8.66 29.34 9.32 29 10 C23.95069268 9.51911359 21.12169785 7.86726807 17 5 C12.66466608 3.47320849 8.20158674 4.0698607 3.6796875 4.2578125 C2.79539062 4.17273438 1.91109375 4.08765625 1 4 C0.34 3.01 -0.32 2.02 -1 1 C-0.67 0.67 -0.34 0.34 0 0 Z " fill="#6B8058" transform="translate(381,168)"/>
<path d="M0 0 C2 1 2 1 2.8515625 3.06640625 C3.10679687 3.89011719 3.36203125 4.71382812 3.625 5.5625 C3.88539063 6.38878906 4.14578125 7.21507812 4.4140625 8.06640625 C4.60742188 8.70449219 4.80078125 9.34257812 5 10 C3.68 10.99 2.36 11.98 1 13 C-3.875 8.25 -3.875 8.25 -5 6 C-3.42105792 3.63158688 -2.0245738 1.93254772 0 0 Z " fill="#618347" transform="translate(465,156)"/>
<path d="M0 0 C1.3125 2.0625 1.3125 2.0625 2 4 C1.01 3.67 0.02 3.34 -1 3 C-4.1152934 2.65638473 -7.24540647 2.53476904 -10.375 2.375 C-11.22578125 2.3234375 -12.0765625 2.271875 -12.953125 2.21875 C-17.14287948 1.99686269 -20.90833315 1.87184494 -25 3 C-24 1 -24 1 -20.625 -0.125 C-13.97703318 -1.64624646 -6.60436035 -1.81161274 0 0 Z " fill="#879B77" transform="translate(399,148)"/>
<path d="M0 0 C1.98 0.66 3.96 1.32 6 2 C6.75566986 4.72041151 7.13838286 6.5018217 6.375 9.25 C5 11 5 11 2.375 11.75 C1.59125 11.8325 0.8075 11.915 0 12 C0 8 0 4 0 0 Z " fill="#38454A" transform="translate(537,142)"/>
<path d="M0 0 C0.54785156 0.0721875 1.09570312 0.144375 1.66015625 0.21875 C8.36390344 1.00357894 14.94456493 1.01271651 21.6796875 0.83984375 C24.80294237 0.99049487 26.40833256 1.33950956 29 3 C19.89911216 5.90105422 8.60790266 4.68910114 0 1 C0 0.67 0 0.34 0 0 Z " fill="#394143" transform="translate(281,227)"/>
<path d="M0 0 C0.33 0 0.66 0 1 0 C1.16820551 1.93736701 1.33451095 3.87489906 1.5 5.8125 C1.5928125 6.89144531 1.685625 7.97039062 1.78125 9.08203125 C2 12 2 12 2 15 C1.34 14.67 0.68 14.34 0 14 C-0.33 14.99 -0.66 15.98 -1 17 C-1.99 16.67 -2.98 16.34 -4 16 C-4 15.34 -4 14.68 -4 14 C-4.99 13.67 -5.98 13.34 -7 13 C-7 12.01 -7 11.02 -7 10 C-6.401875 10.185625 -5.80375 10.37125 -5.1875 10.5625 C-2.83591238 11.22093687 -2.83591238 11.22093687 0 10 C0 6.7 0 3.4 0 0 Z " fill="#527935" transform="translate(455,118)"/>
<path d="M0 0 C0.86625 -0.00773438 1.7325 -0.01546875 2.625 -0.0234375 C5.41764172 0.44506489 6.3307404 1.12369594 8 3.375 C8 4.035 8 4.695 8 5.375 C6.35 5.375 4.7 5.375 3 5.375 C3 4.715 3 4.055 3 3.375 C-1.19075475 3.18008117 -4.24079436 3.44169424 -8 5.375 C-8.33 6.035 -8.66 6.695 -9 7.375 C-8.036927 1.78917662 -5.61223802 -0.05010927 0 0 Z " fill="#7D956A" transform="translate(444,153.625)"/>
<path d="M0 0 C1.134375 0.020625 2.26875 0.04125 3.4375 0.0625 C3.4375 0.3925 3.4375 0.7225 3.4375 1.0625 C1.7875 1.3925 0.1375 1.7225 -1.5625 2.0625 C-1.5625 6.6825 -1.5625 11.3025 -1.5625 16.0625 C-2.2225 16.3925 -2.8825 16.7225 -3.5625 17.0625 C-4.39975216 13.42111758 -4.69759204 10.04655504 -4.6875 6.3125 C-4.69007813 5.34828125 -4.69265625 4.3840625 -4.6953125 3.390625 C-4.47829066 -0.41364013 -3.96914253 0.06963408 0 0 Z " fill="#7A8D67" transform="translate(433.5625,116.9375)"/>
<path d="M0 0 C0.99 0.33 1.98 0.66 3 1 C2.67 4.63 2.34 8.26 2 12 C2.99 12.33 3.98 12.66 5 13 C6.61653196 16.23306391 7.39147692 19.45028204 8 23 C7.34 23 6.68 23 6 23 C1.39746499 15.15103405 -0.97242844 9.14803051 0 0 Z " fill="#4F6B36" transform="translate(456,118)"/>
<path d="M0 0 C2.76669035 2.37033864 3.72666067 4.46545585 4.75 7.9375 C5.14445312 9.21947266 5.14445312 9.21947266 5.546875 10.52734375 C6.01667187 13.09097669 5.83746128 14.56117696 5 17 C3.68 17.33 2.36 17.66 1 18 C1 15 1 15 1.625 11.0625 C2.07725347 7.67989182 1.85399171 5.94457507 0 3 C0 2.01 0 1.02 0 0 Z " fill="#80975E" transform="translate(458,133)"/>
<path d="M0 0 C4 4.75 4 4.75 4 7 C5.65 7 7.3 7 9 7 C8.34 8.98 7.68 10.96 7 13 C4.36 11.35 1.72 9.7 -1 8 C-0.67 5.36 -0.34 2.72 0 0 Z " fill="#4D5759" transform="translate(538,134)"/>
<path d="M0 0 C0.6875 1.625 0.6875 1.625 1 4 C-0.55079982 7.72191958 -2.47059262 10.86835277 -5 14 C-5.99 13.67 -6.98 13.34 -8 13 C-7.04600922 11.20601733 -6.08665974 9.41488345 -5.125 7.625 C-4.59132813 6.62726563 -4.05765625 5.62953125 -3.5078125 4.6015625 C-2 2 -2 2 0 0 Z " fill="#849677" transform="translate(469,87)"/>
<path d="M0 0 C0.99 0.99 1.98 1.98 3 3 C2.6875 6.1875 2.6875 6.1875 2 9 C-2.73030752 10.22637602 -7.08779315 11.14034877 -12 11 C-8.5647952 8.70986347 -7.014669 8.82157027 -3 9 C-2.01 6.03 -1.02 3.06 0 0 Z " fill="#475054" transform="translate(536,142)"/>
<path d="M0 0 C0.66 0.33 1.32 0.66 2 1 C1.04901734 2.98270912 0.08899297 4.96108379 -0.875 6.9375 C-1.40867187 8.03964844 -1.94234375 9.14179688 -2.4921875 10.27734375 C-4 13 -4 13 -6 14 C-6.75 12.375 -6.75 12.375 -7 10 C-5.25 7 -5.25 7 -3 4 C-2.4225 3.21625 -1.845 2.4325 -1.25 1.625 C-0.8375 1.08875 -0.425 0.5525 0 0 Z " fill="#51595B" transform="translate(336,203)"/>
<path d="M0 0 C3 2 3 2 3.6875 4.625 C3.790625 5.40875 3.89375 6.1925 4 7 C3.34 7 2.68 7 2 7 C2 7.99 2 8.98 2 10 C1.01 10 0.02 10 -1 10 C-1.33 7.03 -1.66 4.06 -2 1 C-1.34 0.67 -0.68 0.34 0 0 Z " fill="#485257" transform="translate(468,171)"/>
<path d="M0 0 C0.33 0.66 0.66 1.32 1 2 C0.67 2.66 0.34 3.32 0 4 C-0.66 4 -1.32 4 -2 4 C-2.061875 4.556875 -2.12375 5.11375 -2.1875 5.6875 C-3.3480769 8.99068042 -5.40213446 10.71894733 -8 13 C-8.66 13 -9.32 13 -10 13 C-8.51082643 8.08572721 -5.55813338 4.59680874 -2 1 C-1.34 0.67 -0.68 0.34 0 0 Z " fill="#565F63" transform="translate(106,157)"/>
<path d="M0 0 C0.66 0.99 1.32 1.98 2 3 C1.34 3.66 0.68 4.32 0 5 C-0.78375 5.825 -1.5675 6.65 -2.375 7.5 C-4.60442985 9.62326652 -6.19588184 10.85758149 -9 12 C-9.625 10.125 -9.625 10.125 -10 8 C-9.34 7.34 -8.68 6.68 -8 6 C-6.68 6 -5.36 6 -4 6 C-4 5.34 -4 4.68 -4 4 C-2.70766393 2.62689293 -1.37562854 1.28965176 0 0 Z " fill="#5D6367" transform="translate(540,229)"/>
<path d="M0 0 C0.66 0 1.32 0 2 0 C2 0.66 2 1.32 2 2 C2.99 2 3.98 2 5 2 C5.33 2.99 5.66 3.98 6 5 C5.34 5.66 4.68 6.32 4 7 C3.34 6.67 2.68 6.34 2 6 C1.67 7.32 1.34 8.64 1 10 C0.01 9.34 -0.98 8.68 -2 8 C-1.67 6.68 -1.34 5.36 -1 4 C-0.34 4 0.32 4 1 4 C0.67 2.68 0.34 1.36 0 0 Z " fill="#4C712F" transform="translate(449,132)"/>
<path d="M0 0 C0.33 0.99 0.66 1.98 1 3 C-0.26257233 4.17560179 -1.53537084 5.34022865 -2.8125 6.5 C-3.87404297 7.47453125 -3.87404297 7.47453125 -4.95703125 8.46875 C-7 10 -7 10 -10 10 C-8.5741914 6.54804233 -6.90253666 4.8985744 -3.875 2.75 C-3.15054687 2.22921875 -2.42609375 1.7084375 -1.6796875 1.171875 C-1.12539063 0.78515625 -0.57109375 0.3984375 0 0 Z " fill="#798F66" transform="translate(367,153)"/>
<path d="M0 0 C0.33 0.66 0.66 1.32 1 2 C-2.65333143 4.63379708 -5.48521602 6.46884894 -10 7 C-10 6.01 -10 5.02 -10 4 C-6.79192446 1.61685817 -3.93619738 0.56231391 0 0 Z " fill="#525A60" transform="translate(118,151)"/>
<path d="M0 0 C-0.33 0.66 -0.66 1.32 -1 2 C-5.62 2 -10.24 2 -15 2 C-15 1.34 -15 0.68 -15 0 C-9.76528314 -0.75612577 -5.22745859 -1.2063366 0 0 Z " fill="#637742" transform="translate(398,229)"/>
<path d="M0 0 C1.63001953 0.01353516 1.63001953 0.01353516 3.29296875 0.02734375 C4.12441406 0.03894531 4.95585937 0.05054688 5.8125 0.0625 C5.8125 0.3925 5.8125 0.7225 5.8125 1.0625 C4.78189453 1.24425781 4.78189453 1.24425781 3.73046875 1.4296875 C2.82941406 1.59726563 1.92835938 1.76484375 1 1.9375 C0.10667969 2.09992188 -0.78664062 2.26234375 -1.70703125 2.4296875 C-4.41477846 2.97438449 -4.41477846 2.97438449 -7.1875 5.0625 C-9.875 5.1875 -9.875 5.1875 -12.1875 5.0625 C-12.1875 4.4025 -12.1875 3.7425 -12.1875 3.0625 C-11.1975 3.0625 -10.2075 3.0625 -9.1875 3.0625 C-9.1875 2.4025 -9.1875 1.7425 -9.1875 1.0625 C-5.90230525 -0.03256492 -3.45086585 -0.03710608 0 0 Z " fill="#797F84" transform="translate(132.1875,146.9375)"/>
<path d="M0 0 C0.33 0.66 0.66 1.32 1 2 C0.24172908 3.17487036 -0.53207755 4.33972592 -1.3125 5.5 C-1.74175781 6.1496875 -2.17101562 6.799375 -2.61328125 7.46875 C-3.29970703 8.22671875 -3.29970703 8.22671875 -4 9 C-4.99 9 -5.98 9 -7 9 C-7.33 8.01 -7.66 7.02 -8 6 C-5.36 4.02 -2.72 2.04 0 0 Z " fill="#475154" transform="translate(561,236)"/>
<path d="M0 0 C5.42038781 1.80679594 8.3483509 6.11538324 11 11 C10.01 11.495 10.01 11.495 9 12 C9 11.34 9 10.68 9 10 C8.01 9.67 7.02 9.34 6 9 C5.34 8.01 4.68 7.02 4 6 C3.01 5.34 2.02 4.68 1 4 C1.33 3.34 1.66 2.68 2 2 C1.34 2 0.68 2 0 2 C0 1.34 0 0.68 0 0 Z " fill="#5D666A" transform="translate(320,154)"/>
<path d="M0 0 C1.32 0.66 2.64 1.32 4 2 C3.67 4.31 3.34 6.62 3 9 C1.68 9 0.36 9 -1 9 C-0.67 6.03 -0.34 3.06 0 0 Z " fill="#364143" transform="translate(243,156)"/>
<path d="M0 0 C1.20628008 2.33214148 2.1654738 4.49642139 3 7 C0 7 0 7 -2 6 C-2.99 6.33 -3.98 6.66 -5 7 C-5 6.01 -5 5.02 -5 4 C-2.5 1.8125 -2.5 1.8125 0 0 Z " fill="#2F3E44" transform="translate(219,152)"/>
<path d="M0 0 C0.33 0.66 0.66 1.32 1 2 C0.67 2.66 0.34 3.32 0 4 C0.66 4.33 1.32 4.66 2 5 C2.33 5.33 2.66 5.66 3 6 C2.1875 7.9375 2.1875 7.9375 1 10 C0.01 10.33 -0.98 10.66 -2 11 C-2.25 3.375 -2.25 3.375 0 0 Z " fill="#323E42" transform="translate(259,174)"/>
<path d="M0 0 C0.33 0.99 0.66 1.98 1 3 C1.66 3.33 2.32 3.66 3 4 C2.505 4.45375 2.01 4.9075 1.5 5.375 C-0.22609337 6.87635519 -0.22609337 6.87635519 0 9 C-0.66 9 -1.32 9 -2 9 C-2 9.66 -2 10.32 -2 11 C-2.66 11 -3.32 11 -4 11 C-3.48964169 6.6109185 -2.47785723 3.66291938 0 0 Z " fill="#535F62" transform="translate(485,134)"/>
<path d="M0 0 C0.53625 0.2475 1.0725 0.495 1.625 0.75 C-1.45499946 4.42230705 -3.6232602 5.31802365 -8.375 5.75 C-8.375 5.09 -8.375 4.43 -8.375 3.75 C-3.23290173 -0.34030544 -3.23290173 -0.34030544 0 0 Z " fill="#73855F" transform="translate(406.375,203.25)"/>
<path d="M0 0 C2.625 -0.1875 2.625 -0.1875 5 0 C5 1.65 5 3.3 5 5 C3.02 5.33 1.04 5.66 -1 6 C-1.33 5.01 -1.66 4.02 -2 3 C-1.34 2.01 -0.68 1.02 0 0 Z " fill="#507238" transform="translate(470,87)"/>
<path d="M0 0 C0.99 0.99 1.98 1.98 3 3 C2.67 3.99 2.34 4.98 2 6 C-0.06640625 6.73046875 -0.06640625 6.73046875 -2.5625 7.1875 C-3.38878906 7.34605469 -4.21507812 7.50460938 -5.06640625 7.66796875 C-6.02353516 7.83232422 -6.02353516 7.83232422 -7 8 C-5.71034824 6.62437146 -4.37310707 5.29233607 -3 4 C-2.34 4 -1.68 4 -1 4 C-0.67 2.68 -0.34 1.36 0 0 Z " fill="#656E73" transform="translate(149,231)"/>
<path d="M0 0 C1.32 0 2.64 0 4 0 C4 0.99 4 1.98 4 3 C2.25 4.75 2.25 4.75 0 6 C-2.25 5.6875 -2.25 5.6875 -4 5 C-2.25 2.5 -2.25 2.5 0 0 Z " fill="#627A4F" transform="translate(415,217)"/>
<path d="M0 0 C1.65 0 3.3 0 5 0 C2.33333333 2.66666667 -0.33333333 5.33333333 -3 8 C-3.33 6.68 -3.66 5.36 -4 4 C-3.34 4 -2.68 4 -2 4 C-1.34 2.68 -0.68 1.36 0 0 Z " fill="#6C7F58" transform="translate(376,172)"/>
<path d="M0 0 C2.5 -0.375 2.5 -0.375 5 0 C5.66 0.99 6.32 1.98 7 3 C6.34 3 5.68 3 5 3 C5 3.66 5 4.32 5 5 C2.69 4.34 0.38 3.68 -2 3 C-1.34 2.01 -0.68 1.02 0 0 Z " fill="#748960" transform="translate(472,84)"/>
<path d="M0 0 C0.12375 0.639375 0.2475 1.27875 0.375 1.9375 C0.684375 2.9584375 0.684375 2.9584375 1 4 C1.66 4.33 2.32 4.66 3 5 C2.01 6.485 2.01 6.485 1 8 C0.34 8 -0.32 8 -1 8 C-1.66 9.32 -2.32 10.64 -3 12 C-3.66 11.67 -4.32 11.34 -5 11 C-4.360625 10.113125 -3.72125 9.22625 -3.0625 8.3125 C-1.19170243 5.30788572 -0.40576034 3.4489629 0 0 Z " fill="#6C7478" transform="translate(316,192)"/>
<path d="M0 0 C3.63 0 7.26 0 11 0 C11.33 0.99 11.66 1.98 12 3 C11.34 3 10.68 3 10 3 C9.67 3.66 9.34 4.32 9 5 C8.443125 4.525625 7.88625 4.05125 7.3125 3.5625 C4.81653926 1.87604004 2.9553763 1.41046893 0 1 C0 0.67 0 0.34 0 0 Z " fill="#787E82" transform="translate(292,147)"/>
<path d="M0 0 C1.98 0.99 1.98 0.99 4 2 C4.66 2 5.32 2 6 2 C5.67 3.65 5.34 5.3 5 7 C4.34 7 3.68 7 3 7 C2.67 7.66 2.34 8.32 2 9 C1.34 6.03 0.68 3.06 0 0 Z " fill="#70885D" transform="translate(431,134)"/>
<path d="M0 0 C0.38800781 0.48082031 0.77601563 0.96164063 1.17578125 1.45703125 C3.54088647 3.45749498 5.12691453 3.48876068 8.1875 3.6875 C9.08855469 3.75324219 9.98960937 3.81898438 10.91796875 3.88671875 C11.60503906 3.92410156 12.29210937 3.96148437 13 4 C12.67 4.66 12.34 5.32 12 6 C8.04 5.67 4.08 5.34 0 5 C-0.33 5.99 -0.66 6.98 -1 8 C-0.67 5.36 -0.34 2.72 0 0 Z " fill="#2B343A" transform="translate(527,129)"/>
<path d="M0 0 C1.65 0.33 3.3 0.66 5 1 C5 1.66 5 2.32 5 3 C5.66 3.33 6.32 3.66 7 4 C5.02 4.33 3.04 4.66 1 5 C0.34 4.01 -0.32 3.02 -1 2 C-0.67 1.34 -0.34 0.68 0 0 Z " fill="#748A5A" transform="translate(440,224)"/>
<path d="M0 0 C0.66 0.66 1.32 1.32 2 2 C1.72317437 6.24465971 0.81645906 8.81617671 -2 12 C-3.12377697 8.69564916 -2.89554742 6.9493138 -1.5625 3.75 C-1.27503906 3.04359375 -0.98757813 2.3371875 -0.69140625 1.609375 C-0.46324219 1.07828125 -0.23507812 0.5471875 0 0 Z " fill="#555E61" transform="translate(587,165)"/>
<path d="M0 0 C0.33 0.99 0.66 1.98 1 3 C1.99 3.33 2.98 3.66 4 4 C3.34 4 2.68 4 2 4 C2 4.66 2 5.32 2 6 C1.34 6 0.68 6 0 6 C0 6.66 0 7.32 0 8 C-0.66 8 -1.32 8 -2 8 C-2.33 9.65 -2.66 11.3 -3 13 C-4.23593891 9.29218328 -3.5678132 8.32489747 -2.0625 4.8125 C-1.68222656 3.91144531 -1.30195312 3.01039063 -0.91015625 2.08203125 C-0.60980469 1.39496094 -0.30945313 0.70789063 0 0 Z " fill="#626A6E" transform="translate(568,159)"/>
<path d="M0 0 C0.66 0.99 1.32 1.98 2 3 C-2.43076923 6.07692308 -2.43076923 6.07692308 -5.3125 5.6875 C-5.869375 5.460625 -6.42625 5.23375 -7 5 C-4.702779 3.25728062 -2.40133271 1.60088848 0 0 Z " fill="#535B5E" transform="translate(153,254)"/>
<path d="M0 0 C0.99 0.33 1.98 0.66 3 1 C3.33 3.31 3.66 5.62 4 8 C2.0625 7.3125 2.0625 7.3125 0 6 C-0.8125 3.4375 -0.8125 3.4375 -1 1 C-0.67 0.67 -0.34 0.34 0 0 Z " fill="#506B2E" transform="translate(464,150)"/>
<path d="M0 0 C0.66 0 1.32 0 2 0 C2 0.66 2 1.32 2 2 C2.66 2.33 3.32 2.66 4 3 C3.071875 4.1446875 3.071875 4.1446875 2.125 5.3125 C-0.05597052 7.99625809 -0.05597052 7.99625809 -2 11 C-2.33 10.01 -2.66 9.02 -3 8 C-2.67 7.34 -2.34 6.68 -2 6 C-1.34 6 -0.68 6 0 6 C-0.185625 5.38125 -0.37125 4.7625 -0.5625 4.125 C-1 2 -1 2 0 0 Z " fill="#5C6466" transform="translate(500,146)"/>
<path d="M0 0 C0.33 0 0.66 0 1 0 C1.16820551 1.93736701 1.33451095 3.87489906 1.5 5.8125 C1.5928125 6.89144531 1.685625 7.97039062 1.78125 9.08203125 C2 12 2 12 2 15 C1.01 15 0.02 15 -1 15 C-0.67 10.05 -0.34 5.1 0 0 Z " fill="#91A77F" transform="translate(455,118)"/>
<path d="M0 0 C2.70269923 2.70269923 3.70570258 5.4252738 5 9 C4.6875 11.4375 4.6875 11.4375 4 13 C4 12.01 4 11.02 4 10 C3.01 9.67 2.02 9.34 1 9 C0.67 6.03 0.34 3.06 0 0 Z " fill="#7E8E6F" transform="translate(483,94)"/>
<path d="M0 0 C1.65 0 3.3 0 5 0 C4.01 0.495 4.01 0.495 3 1 C2.59270772 3.32156597 2.25561323 5.6568787 2 8 C1.01 7.67 0.02 7.34 -1 7 C-0.67 4.69 -0.34 2.38 0 0 Z " fill="#2E3C42" transform="translate(524,153)"/>
<path d="M0 0 C2.56616632 3.84924948 2.55097676 6.4349304 3 11 C0.24438617 8.96324195 -0.03270868 7.84190804 -0.75 4.375 C-0.8325 3.26125 -0.915 2.1475 -1 1 C-0.67 0.67 -0.34 0.34 0 0 Z " fill="#778A5E" transform="translate(488,107)"/>
<path d="M0 0 C0 0.66 0 1.32 0 2 C-3.3 2.66 -6.6 3.32 -10 4 C-9.67 3.01 -9.34 2.02 -9 1 C-5.94152152 0.45627049 -3.11227195 0 0 0 Z " fill="#5B6365" transform="translate(548,251)"/>
<path d="M0 0 C-0.33 1.65 -0.66 3.3 -1 5 C-2.65 3.68 -4.3 2.36 -6 1 C-3 0 -3 0 0 0 Z M-6 6 C-3 7 -3 7 -3 7 Z " fill="#66814D" transform="translate(375,151)"/>
<path d="M0 0 C3.55780196 0.60990891 6.6828589 1.5783681 10 3 C9.01 3.33 8.02 3.66 7 4 C6.67 4.66 6.34 5.32 6 6 C5.01 5.34 4.02 4.68 3 4 C3 3.01 3 2.02 3 1 C2.01 0.67 1.02 0.34 0 0 Z " fill="#6A7375" transform="translate(142,149)"/>
<path d="M0 0 C0.185625 0.9590625 0.185625 0.9590625 0.375 1.9375 C0.684375 2.9584375 0.684375 2.9584375 1 4 C1.66 4.33 2.32 4.66 3 5 C2.01 5.33 1.02 5.66 0 6 C-0.73323796 8.01508358 -0.73323796 8.01508358 -1 10 C-2.15837626 5.94568308 -1.83691257 3.78187881 0 0 Z " fill="#82946F" transform="translate(351,171)"/>
<path d="M0 0 C0.66 0.33 1.32 0.66 2 1 C0.25 5.875 0.25 5.875 -2 7 C-2.66 6.34 -3.32 5.68 -4 5 C-2.68 3.35 -1.36 1.7 0 0 Z " fill="#2F3B43" transform="translate(158,152)"/>
<path d="M0 0 C0.66 0.66 1.32 1.32 2 2 C0.68 3.65 -0.64 5.3 -2 7 C-2.99 6.67 -3.98 6.34 -5 6 C-3.63016497 2.83884224 -3.0109362 2.0072908 0 0 Z " fill="#728A60" transform="translate(466,94)"/>
<path d="M0 0 C2.51083114 1.25541557 2.87125446 2.50063488 4 5 C2.35 5.66 0.7 6.32 -1 7 C-0.67 4.69 -0.34 2.38 0 0 Z " fill="#324247" transform="translate(563,218)"/>
<path d="M0 0 C-0.33 0.99 -0.66 1.98 -1 3 C-3.31 3.33 -5.62 3.66 -8 4 C-8.33 3.01 -8.66 2.02 -9 1 C-5.846632 0.29925156 -3.27275026 0 0 0 Z " fill="#597546" transform="translate(398,208)"/>
<path d="M0 0 C0.99 0.33 1.98 0.66 3 1 C3.875 2.8125 3.875 2.8125 4 5 C2.5625 7.25 2.5625 7.25 1 9 C0.67 6.03 0.34 3.06 0 0 Z " fill="#545D62" transform="translate(316,182)"/>
<path d="M0 0 C0.66 0.33 1.32 0.66 2 1 C1.071875 2.1446875 1.071875 2.1446875 0.125 3.3125 C-2.05597052 5.99625809 -2.05597052 5.99625809 -4 9 C-4 6.69 -4 4.38 -4 2 C-2.125 0.9375 -2.125 0.9375 0 0 Z " fill="#545B5B" transform="translate(283,175)"/>
<path d="M0 0 C0.33 0.99 0.66 1.98 1 3 C1.66 3.33 2.32 3.66 3 4 C2.67 4.66 2.34 5.32 2 6 C1.01 6 0.02 6 -1 6 C-0.67 6.99 -0.34 7.98 0 9 C-0.66 9 -1.32 9 -2 9 C-1.125 2.25 -1.125 2.25 0 0 Z " fill="#666E74" transform="translate(563,172)"/>
<path d="M0 0 C0.66 0 1.32 0 2 0 C1.67 1.98 1.34 3.96 1 6 C-0.32 5.67 -1.64 5.34 -3 5 C-1.625 2.5 -1.625 2.5 0 0 Z " fill="#30393D" transform="translate(269,159)"/>
<path d="M0 0 C1.42944945 2.35438733 2.08661261 3.48032433 1.625 6.25 C1.41875 6.8275 1.2125 7.405 1 8 C0.01 8 -0.98 8 -2 8 C-1.47731534 5.23723823 -0.89130413 2.6739124 0 0 Z " fill="#5E794B" transform="translate(489,120)"/>
<path d="M0 0 C1.98 0.99 3.96 1.98 6 3 C5.67 3.66 5.34 4.32 5 5 C2.9375 5.625 2.9375 5.625 1 6 C0.67 4.02 0.34 2.04 0 0 Z " fill="#7B9264" transform="translate(445,121)"/>
<path d="M0 0 C3 2 3 2 4 4 C2.02 4.99 2.02 4.99 0 6 C-0.66 4.68 -1.32 3.36 -2 2 C-1.34 1.34 -0.68 0.68 0 0 Z " fill="#2D3940" transform="translate(107,248)"/>
<path d="M0 0 C0.33 0.99 0.66 1.98 1 3 C-2.3 3 -5.6 3 -9 3 C-7.14340032 -0.71319936 -3.69365381 -0.09982848 0 0 Z " fill="#7E8587" transform="translate(111,229)"/>
<path d="M0 0 C1.65 0 3.3 0 5 0 C5 0.99 5 1.98 5 3 C6.32 3.66 7.64 4.32 9 5 C4.68607774 4.5206753 2.83430453 3.2542015 0 0 Z " fill="#74797B" transform="translate(111,224)"/>
<path d="M0 0 C1.98 0.66 3.96 1.32 6 2 C6 2.99 6 3.98 6 5 C4.125 4.75 4.125 4.75 2 4 C0.75 1.9375 0.75 1.9375 0 0 Z " fill="#2D3B40" transform="translate(537,142)"/>
<path d="M0 0 C0.33 0 0.66 0 1 0 C1.125 2.875 1.125 2.875 1 6 C0.34 6.66 -0.32 7.32 -1 8 C-2.32 7.34 -3.64 6.68 -5 6 C-3.625 4.5 -3.625 4.5 -2 3 C-1.34 3 -0.68 3 0 3 C0 2.01 0 1.02 0 0 Z " fill="#5A6164" transform="translate(527,134)"/>
<path d="M0 0 C0.33 0 0.66 0 1 0 C1.66 2.64 2.32 5.28 3 8 C1.35 8 -0.3 8 -2 8 C-1.125 1.125 -1.125 1.125 0 0 Z " fill="#5A6363" transform="translate(152,223)"/>
<path d="M0 0 C0.99 0.66 1.98 1.32 3 2 C-2.75 5 -2.75 5 -5 5 C-4 2 -4 2 -1.9375 0.8125 C-1.298125 0.544375 -0.65875 0.27625 0 0 Z " fill="#728759" transform="translate(409,224)"/>
<path d="M0 0 C0.99 0 1.98 0 3 0 C3.93065133 2.60582371 4.14917407 3.64198224 3.0625 6.25 C2.5365625 7.11625 2.5365625 7.11625 2 8 C0.23537317 4.91190305 0 3.76687864 0 0 Z " fill="#8C9D7A" transform="translate(349,198)"/>
<path d="M0 0 C2.31 0.66 4.62 1.32 7 2 C6.67 2.66 6.34 3.32 6 4 C3.03 3.505 3.03 3.505 0 3 C0 2.01 0 1.02 0 0 Z " fill="#818C71" transform="translate(404,174)"/>
</svg>
